<svg id="Paris_Citysets" data-name="Paris Citysets" xmlns="http://www.w3.org/2000/svg" width="150" height="150" viewBox="0 0 32 32"><defs><style>.cls-1{fill-rule:evenodd;}</style></defs><title>grape-vine</title><path id="grape-vine" class="cls-1" d="M27.72,13.12l1.42-1.41A6.4,6.4,0,0,0,25,9.62V7.5A3.5,3.5,0,0,0,21.53,4H18V7.5a3.48,3.48,0,0,0,2.9,3.44,10.49,10.49,0,0,0-1.13.93,12.45,12.45,0,0,0-1.12,1.19,3.92,3.92,0,0,0-2.16-.48,4,4,0,1,0-7.07,2.24,3.95,3.95,0,0,0-2.13,6.36,4,4,0,1,0,3.81,6.69,3.93,3.93,0,0,0,1-1.85,4,4,0,0,0,6.37-2.12,4,4,0,1,0,2.23-7.07,3.94,3.94,0,0,0-.61-2.42,11.34,11.34,0,0,1,1-1.08c2.21-2.05,4.36-2.41,6.56-.21m-18,13.34a2,2,0,1,1,0-2.83,2,2,0,0,1,0,2.83m2.13-6.37a2,2,0,1,1,0-2.82,2,2,0,0,1,0,2.82m-.71-6.36a2,2,0,1,1,2.83,0,2,2,0,0,1-2.83,0m5,10.61a2,2,0,1,1,0-2.83,2,2,0,0,1,0,2.83M18.2,18a2,2,0,1,1,0-2.83,2,2,0,0,1,0,2.83m4.24,1.42a2,2,0,1,1-2.83,0,2,2,0,0,1,2.83,0M20,7.5V6h1.5A1.51,1.51,0,0,1,23,7.5V9h-1.5A1.5,1.5,0,0,1,20,7.5"/></svg>