<svg xmlns="http://www.w3.org/2000/svg" viewBox="0 0 64 64"><path d="M51.604 9.42s-.19-1.235-.332-1.425c-.142-.19-1.613-1.424-3.605-.664-1.993.76-2.23 3.37-1.044 4.558 1.186 1.187 4.79 1.566 6.262.095 1.47-1.47 4.033-7.262-.237-10.585-4.27-3.323-11.86-.285-12.62 4.557-.76 4.842 1.898 7.594 4.84 11.44 2.94 3.844 2.56 8.116.19 11.913-2.373 3.797-7.592 3.465-7.592 3.465s2.61-4.936 2.088-9.636c-.522-4.7-7.543-10.395-12.05-7.025-4.507 3.37-3.558 8.4-1.85 11.772 1.708 3.37 8.018 6.313 8.018 6.313s-1.708 2.04-4.602 3.797c-2.894 1.756-6.405 1.994-6.405 1.994S26.365 36 24.61 29.64c-1.755-6.36-11.34-6.313-13.426-4.557-2.087 1.756-4.507 5.41-2.325 11.012 2.18 5.6 9.06 5.648 9.06 5.648s-4.602 4.13-5.646 6.74c-1.044 2.61-2.04 6.74.854 11.012s9.3 5.648 15.94 3.512c6.642-2.136 8.35-8.544 6.547-14.05s-9.536-5.98-11.433-3.37c-1.898 2.61-2.704 6.93.332 9.113s6.405.095 6.642-.76c.237-.853.474-3.654-2.04-4.366s-3.463 1.756-3.463 1.756c-2.135-3.418 1.186-5.41 3.416-5.08 2.23.333 4.46 2.374 4.933 6.266.474 3.892-2.277 8.306-10.105 8.97-7.828.665-9.393-3.417-9.726-8.685s6.405-10.63 6.405-10.63c13.995-.998 15.988-7.643 15.988-7.643 5.55.95 10.817-1.566 12.62-7.974 1.802-6.408-1.424-9.92-3.986-12.673-2.563-2.753-3.37-7.595-1.52-9.493 1.85-1.9 4.176-2.136 5.93-1.614 1.756.522 2.515 2.61 2.563 4.51.047 1.898-.57 2.136-.57 2.136zm-32.118 30.9c-3.084-.143-6.025-2.327-7.78-4.463-1.756-2.136-1.994-7.69 1.185-9.066 3.18-1.375 7.78-.236 9.774 4.178s-3.178 9.35-3.178 9.35zm15.798-8.213c-1.47-.522-4.554-2.23-6.832-4.7s-2.467-8.448.474-9.54c2.942-1.092 5.835.807 7.97 4.747 2.136 3.94-1.612 9.493-1.612 9.493z"/></svg>