<svg xmlns="http://www.w3.org/2000/svg" fill="#6C6EA0" viewBox="0 0 64 64"><path d="M36.16 58.3c-.144 0-.192-15.434-.192-15.434 9.688-.726 13.935-9.676 14.03-15.966S43.795 1.065 43.175.388c-.62-.677-23.29-.34-23.623.048-.334.387-4.01 15.337-4.868 19.74-.86 4.402-1.67 9.87 2.625 15.868s11.643 6.822 11.643 6.822.286 14.998.143 15.288c-.143.29-7.015 3.725-7.158 3.87s-.477 1.79-.477 1.935 24.1-.146 24.244-.146.143-1.258-.095-1.887c-.24-.63-9.307-3.628-9.45-3.628zm-9.26 3.29c-.176-.3 4.296-2.227 4.296-2.662 0-.435-.382-16.69-.43-17.61-.048-.92-3.436.048-8.638-4.112s-5.727-7.886-5.68-11.853c.05-3.967 4.344-22.642 4.773-22.787.43-.145 19.758-.677 20.14-.194s.477 2.467.477 2.467-2.672-2.08-3.007-1.888c-.334.193-.81 1.064-.382 1.21.43.144 4.01 2.418 4.152 2.757.143.338.907 2.03.62 2.08-.286.047-4.01-2.372-4.247-2.178-.24.193-.048 1.355-.048 1.355s4.868 2.71 4.915 2.95c.048.243.81 2.08.525 1.936-.286-.145-3.53-2.08-3.627-1.887-.095.193-.143 1.258.095 1.355s3.722 2.13 4.2 2.614c.477.484 1.098 1.935.86 1.935-.24 0-3.39-1.114-3.39-1.114s-.19.92.05 1.113c.238.192 3.53 1.402 3.817 1.837.286.435 2.004 9.144.525 12.87-1.48 3.724-4.534 7.063-8.304 7.69-3.77.63-4.58 1.162-4.914 1.84-.334.676-.095 17.658.19 17.755.287.097 5.775 2.08 5.537 2.226-.237.146-12.36.533-12.502.29zM42.377 35.24c3.75-4.23 4.57-10.388 4.43-12.034-.226-2.668-2.172-2.765-4.055-2.86l-.695-.036c-.263-.015-.504-.023-.728-.023-1.362 0-2.174.264-2.89.498-.427.14-.83.272-1.384.36-.176.028-.35.04-.522.04-.818 0-1.652-.272-2.388-.51-.435-.142-.847-.276-1.236-.348-.154-.028-.314-.043-.48-.043-.785 0-1.57.316-2.4.65-.658.265-1.338.54-1.998.647-.104.017-.202.025-.298.025-.446 0-.88-.184-1.428-.415-.72-.304-1.62-.683-2.828-.74-.1-.004-.2-.006-.297-.006-2.31 0-4.58 1.318-4.857 2.822-.547 2.988.214 7.848 3.177 11.46 1.8 2.194 5.156 4.81 10.93 4.81l.418-.006c3.872-.08 7.077-1.527 9.53-4.294zm-9.557 2.98c-11.31.24-14.08-10.016-13.22-14.71.117-.64 1.718-1.837 3.818-1.74 2.1.096 3.054 1.402 4.82 1.112 1.766-.29 3.388-1.45 4.438-1.258 1.05.194 2.768 1.113 4.58.822 1.814-.29 2.244-.968 4.725-.822 2.483.145 3.39 0 3.532 1.693.144 1.693-1.383 14.66-12.693 14.9zM21.985 10.595c.286-.048 1.098-5.757 1.098-5.757s-.984-.385-1.05-.05c-.096.484-1.242 5.273-1.242 5.66 0 .388.907.194 1.194.146z"/></svg>
