<svg xmlns="http://www.w3.org/2000/svg" fill="#6C6EA0" viewBox="0 0 64 64"><path d="M21.585 24.492c1.89.566 4.067-1.097 3.674-2.973-.393-1.877-2.753-1.973-3.89-1.098-1.747 1.344-1.676 3.503.215 4.07zm1.32-3.222c.712.054 1.427.53.927 1.522-.5.99-2.105.566-2.212-.354-.107-.92.82-1.203 1.285-1.168zm40.7 22.69C63 43.04 59.72 40.033 51.48 32.068c-8.24-7.965-13.84-12.177-16.66-13.805-2.817-1.628-10.272-2.62-13.34-3.858s-9.168-7.15-9.31-7.292c-.143-.142.5-.53.428-1.097S7.673 1.447 7.03 1.022C6.39.597-.174 6.367.005 7.642s4.46 5.027 4.923 5.345c.464.32 1.213-.035 1.213-.035s5.707 5.628 7.74 8.213c2.034 2.584 2.39 6.513 3.425 9.947 1.034 3.434 2.533 6.407 5.92 10.195 3.39 3.788 21.903 20.425 23.65 20.673 1.75.248 6.243-1.7 9.17-3.646 2.924-1.947 5.278-5.062 6.74-8 1.463-2.94 1.427-5.453.82-6.373zM6.14 10.156c-.607-.07-3.176-2.3-3.283-2.832-.064-.32 3.317-3.504 3.924-3.292.608.214 3.14 2.656 2.82 3.187-.322.53-2.855 3.01-3.46 2.938zm10.736 11.363c-.785-1.133-1.89-2.443-1.89-2.62s.534-2.796.32-3.01c-.214-.21-.75-.53-.892-.388-.143.142-.036 2.336-.32 2.23-.286-.106-1.356-1.31-1.356-1.522 0-.212.464-3.044.25-3.22-.214-.178-.82-.46-.892-.32-.07.142-.32 2.478-.32 2.478s-.786-.92-.786-1.133c0-.212.32-2.3-.07-2.443-.393-.142-1-.283-1.035-.07-.036.21.143 1.733-.143 1.557s-1.177-1.24-1.355-1.487c-.117-.163 2.176-2.726 2.497-2.55.32.178 5.636 5.346 7.776 6.62s5.35 2.373 7.17 2.762c1.82.39 2.925.566 2.925.566s-2.71 3.01-2.604 3.292c.108.283 1.392 5.593 1.035 5.522-.357-.07-5.493-1.593-5.85-1.38-.357.21-1.89 2.017-2.07 1.946s-1.604-5.697-2.39-6.83zm43.77 27.93c-.714 1.31-1.178 1.698-1.178 1.698s.357-2.62.143-2.76c-.213-.143-.998 0-.998.247 0 .248-.143 4.46-.25 4.637-.107.177-1.39 1.664-1.534 1.45-.143-.21.357-4.707.143-4.778-.213-.07-.998.39-1.033.602-.036.212.036 4.99-.07 5.133-.108.142-2.07 1.522-2.07 1.522s.214-4.178.07-4.284c-.142-.106-1.14.248-1.14.425s.036 4.674-.107 4.78c-.143.106-1.712 1.062-1.82.885-.106-.177.536-5.487.286-5.522s-1.177.035-1.177.32-.215 5.875-.393 5.875c-.178 0-1.605.248-1.712-.142-.107-.39.428-5.558.25-5.664-.178-.106-.82-.212-.892.106-.07.32-.07 4.885-.428 4.743-.357-.14-1.605-1.273-1.605-1.38 0-.106.285-4.283.036-4.354-.25-.07-1.034-.035-1.07.142-.036.177.143 2.973 0 2.973s-1.39-.99-1.39-1.167c0-.177.035-3.15.035-3.15s-1.212-.035-1.176.142c.036.177-.07 2.124-.07 2.124s-8.883-6.833-14.27-12.497c-5.385-5.664-6.563-7.61-6.955-9.204-.393-1.594-.68-2.48-.607-2.656.114-.283 1.89-2.018 2.176-1.947.284.07 5.528 1.416 6.134 1.45.606.036 1.07-.813.856-1.486-.214-.672-1.25-4.99-1.14-5.344.106-.354 2.674-2.903 2.674-2.903s2.497-.035 6.635 3.115c4.137 3.15 12.52 11.752 16.586 15.22 4.067 3.47 6.92 5.877 7.562 7.364.638 1.49.21 2.976-.503 4.285zM36.138 25.482c-.714-.283-2.89 1.664-4.96 4.07s-6.072 5.422-5.85 6.23c.322 1.17 12.807 12.992 13.95 13.594 1.14.602 6.027.708 7.24.496 1.213-.212 2.996-.39 3.53-2.053.536-1.664.465-7.717-.39-9.7C48.8 36.14 36.85 25.767 36.14 25.484zm12.377 22.16c-1.106 1.627-8.525.6-8.918.318-.393-.282-12.272-11.75-12.664-12.353-.21-.32 8.24-8.743 8.846-8.425.606.32 12.2 10.513 12.52 11.363.322.85 1.32 7.47.215 9.097zM35.89 32.562c-.215-.036-3.617 3.076-3.497 3.433.07.212.5.85.856.99.356.143 3.21-3.08 3.46-3.54.25-.46-.607-.848-.82-.884zm2.995 2.477c-.285-.07-3.933 3.742-3.888 3.965.036.177.75 1.027.963 1.027.214 0 3.71-3.61 3.888-3.965.18-.354-.677-.956-.963-1.027zm3.567 2.76c-.178-.034-3.51 2.983-3.317 3.364.107.212.642.99.785.99.143 0 3.246-3.043 3.317-3.503.072-.46-.606-.813-.785-.85z"/></svg>
